<svg width="41" height="35" viewBox="0 0 41 35" fill="none" xmlns="http://www.w3.org/2000/svg">
<path d="M20.8396 24.7206C20.4614 24.7206 20.1526 25.0199 20.1526 25.3917V26.7163C20.1526 27.0881 20.4614 27.3873 20.8396 27.3873C21.2178 27.3873 21.5265 27.0881 21.5265 26.7163V25.3917C21.5265 25.0199 21.2178 24.7206 20.8396 24.7206Z" fill="white" stroke="white" stroke-width="0.1"/>
<path d="M37.5581 15.4428L37.5581 15.4427C37.1069 13.2849 36.0951 11.2508 34.6321 9.5602C33.2237 7.93259 31.4214 6.65133 29.4118 5.84368C29.0828 4.50765 28.3927 3.13004 27.0386 2.09265C25.7205 1.08288 24.3931 0.888236 24.3338 0.879917L24.3338 0.879908C24.1374 0.852614 23.9377 0.909602 23.7872 1.03689C23.6366 1.16422 23.5498 1.34918 23.5498 1.54422V4.84776H21.3254C20.736 2.93366 18.9142 1.53565 16.7634 1.53565C14.5652 1.53565 12.7096 2.99559 12.1632 4.97472C9.01519 5.40046 6.11974 6.89118 3.96924 9.20468L4.00586 9.23872L3.96924 9.20468C1.69996 11.6462 0.45 14.807 0.45 18.1048C0.45 25.4944 4.38387 31.5047 5.5891 33.1702C5.97046 33.6973 6.59453 34.0115 7.2582 34.0115H9.96922C11.0961 34.0115 12.015 33.1174 12.015 32.0156V31.214C12.6849 31.3117 13.3649 31.3618 14.0457 31.3618H20.1528V32.0156C20.1528 33.1174 21.0717 34.0115 22.1986 34.0115H25.1765C26.134 34.0115 26.9756 33.3491 27.1767 32.4341L27.4969 30.9776C31.673 29.976 35.0324 27.1195 36.6959 23.4129H39.1837C39.9359 23.4129 40.55 22.816 40.55 22.0795V16.78C40.55 16.4234 40.4075 16.0882 40.1493 15.8365C39.8912 15.5849 39.5483 15.4465 39.1838 15.4465H39.1837H39.1837H39.1837H39.1836H39.1836H39.1836H39.1835L37.5592 15.4467C37.5587 15.4454 37.5584 15.4441 37.5581 15.4428ZM39.1762 22.0293H39.1761V22.0708H37.2111C37.5469 21.0272 37.7538 19.9313 37.8138 18.802C37.8337 18.4307 37.5411 18.1162 37.1633 18.0971C36.7857 18.0784 36.4615 18.3611 36.4418 18.7324C36.1746 23.755 32.6861 28.0486 27.8218 29.4988L28.6936 25.5325C28.7736 25.1689 28.5358 24.8128 28.1656 24.7355C27.7961 24.658 27.4301 24.8876 27.3503 25.2508L25.8334 32.1523C25.7678 32.4509 25.4919 32.6694 25.1765 32.6694H22.1984C21.8268 32.6694 21.5266 32.3748 21.5266 32.0156V29.3658C21.5266 28.994 21.2178 28.6948 20.8396 28.6948C20.4614 28.6948 20.1527 28.994 20.1527 29.3658V30.0197H14.0455C13.3637 30.0197 12.6831 29.9637 12.0148 29.8549V25.3914C12.0148 25.0196 11.7061 24.7204 11.3279 24.7204C10.9497 24.7204 10.6409 25.0196 10.6409 25.3914V32.0156C10.6409 32.3749 10.3407 32.6695 9.96906 32.6695H7.2582C7.03553 32.6695 6.83663 32.5694 6.71107 32.3957L6.71106 32.3957C5.56414 30.8104 1.82391 25.0966 1.82391 18.1047C1.82391 15.1413 2.94692 12.301 4.98639 10.1068L4.94977 10.0728L4.98639 10.1068C6.84008 8.11243 9.30923 6.79824 12.0037 6.35608C12.0187 6.74406 12.0834 7.12762 12.195 7.4974H12.0074C11.6292 7.4974 11.3205 7.79662 11.3205 8.16843C11.3205 8.54023 11.6292 8.83945 12.0074 8.83945H21.5191C21.8974 8.83945 22.2061 8.54023 22.2061 8.16843C22.2061 7.79662 21.8974 7.4974 21.5191 7.4974H21.3315C21.4592 7.07485 21.5258 6.63439 21.5266 6.18974H23.5498V7.50596C23.5498 7.87776 23.8585 8.17699 24.2367 8.17699C24.6149 8.17699 24.9237 7.87776 24.9237 7.50596V2.43193C25.5183 2.66114 26.343 3.1096 27.0288 3.96507C27.7404 4.85262 28.3056 6.18202 28.3056 8.1685C28.3056 8.5403 28.6144 8.83953 28.9926 8.83953C29.3708 8.83953 29.6795 8.5403 29.6795 8.1685C29.6795 7.93061 29.6716 7.68076 29.6536 7.4229C31.1527 8.14776 32.4978 9.17284 33.5829 10.4267C34.8977 11.9462 35.8068 13.7736 36.212 15.7114C36.3426 16.3363 36.9049 16.7889 37.5487 16.7888L39.1762 16.7887V22.0293ZM16.7633 2.87779C18.6334 2.87779 20.1527 4.36098 20.1527 6.18133C20.1527 6.63615 20.0552 7.08443 19.871 7.49755L13.6555 7.49755C13.4714 7.08428 13.3737 6.63614 13.3737 6.18133C13.3737 4.36091 14.8931 2.87779 16.7633 2.87779Z" fill="white" stroke="white" stroke-width="0.1"/>
<path d="M28.4116 15.8828L28.4116 15.8828C28.815 14.8281 29.8808 14.1218 31.0621 14.1218C32.2433 14.1218 33.3093 14.8281 33.7125 15.8828C33.7125 15.8828 33.7125 15.8828 33.7125 15.8829L33.6658 15.9007C33.7887 16.222 33.6211 16.5797 33.2915 16.6995L28.4116 15.8828ZM28.4116 15.8828C28.2784 16.2312 28.4605 16.6175 28.8155 16.7465M28.4116 15.8828L28.8155 16.7465M28.8155 16.7465C29.17 16.8755 29.5657 16.7001 29.6986 16.3524L28.8155 16.7465ZM33.0691 16.7888C33.1488 16.7888 33.2297 16.7752 33.3086 16.7465L29.6986 16.3524C29.9011 15.8229 30.4479 15.4638 31.062 15.4638C31.6761 15.4638 32.223 15.8229 32.4255 16.3524C32.5289 16.6229 32.7913 16.7888 33.0691 16.7888Z" fill="white" stroke="white" stroke-width="0.1"/>
<path d="M22.5051 19.4438C21.6172 18.9697 20.4706 18.6795 19.4184 18.4513V15.1398C20.2422 15.2218 20.94 15.4088 21.4334 15.6408C21.6856 15.7595 21.8824 15.8889 22.0153 16.0202C22.1486 16.152 22.2131 16.2811 22.2131 16.4C22.2131 16.6029 22.3204 16.7831 22.487 16.9111C22.6537 17.039 22.8817 17.1167 23.1316 17.1167C23.3814 17.1167 23.6095 17.039 23.7761 16.9111C23.9428 16.7831 24.05 16.6029 24.05 16.4C24.05 15.692 23.5376 15.0641 22.7054 14.5913C21.8813 14.1231 20.733 13.8003 19.4184 13.697V13.6667C19.4184 13.4638 19.3112 13.2835 19.1445 13.1556C18.9779 13.0277 18.7499 12.95 18.5 12.95C18.2501 12.95 18.0221 13.0277 17.8555 13.1556C17.6888 13.2835 17.5816 13.4638 17.5816 13.6667V13.697C16.267 13.8003 15.1187 14.1231 14.2946 14.5913C13.4624 15.0641 12.95 15.692 12.95 16.4C12.95 17.4001 13.5953 18.0758 14.4949 18.5562C15.3827 19.0303 16.5293 19.3205 17.5816 19.5487V22.8602C16.7578 22.7782 16.06 22.5912 15.5666 22.3592C15.3144 22.2405 15.1176 22.1111 14.9847 21.9798C14.8514 21.848 14.7869 21.7189 14.7869 21.6C14.7869 21.3971 14.6796 21.2169 14.513 21.0889C14.3463 20.961 14.1183 20.8833 13.8684 20.8833C13.6186 20.8833 13.3905 20.961 13.2239 21.0889C13.0572 21.2169 12.95 21.3971 12.95 21.6C12.95 22.308 13.4624 22.9359 14.2946 23.4087C15.1187 23.8769 16.267 24.1997 17.5816 24.303V24.3333C17.5816 24.5362 17.6888 24.7165 17.8555 24.8444C18.0221 24.9723 18.2501 25.05 18.5 25.05C18.7499 25.05 18.9779 24.9723 19.1445 24.8444C19.3112 24.7165 19.4184 24.5362 19.4184 24.3333V24.303C20.733 24.1997 21.8813 23.8769 22.7054 23.4087C23.5376 22.9359 24.05 22.308 24.05 21.6C24.05 20.5999 23.4046 19.9241 22.5051 19.4438ZM17.5816 15.1398V18.049C16.5467 17.797 15.8484 17.5569 15.4078 17.2937C15.1837 17.1598 15.0287 17.0215 14.9298 16.8749C14.8314 16.7291 14.7869 16.573 14.7869 16.4C14.7869 16.2811 14.8514 16.152 14.9847 16.0202C15.1176 15.8889 15.3144 15.7595 15.5666 15.6408C16.06 15.4088 16.7578 15.2218 17.5816 15.1398ZM21.4333 22.3592C20.9399 22.5912 20.2422 22.7782 19.4184 22.8603V19.9511C20.4533 20.203 21.1516 20.4431 21.5922 20.7063C21.8163 20.8402 21.9713 20.9786 22.0702 21.1252C22.1686 21.2709 22.2131 21.4271 22.2131 21.6001C22.2131 21.719 22.1486 21.8481 22.0152 21.9799C21.8823 22.1112 21.6856 22.2406 21.4333 22.3592Z" fill="white" stroke="white" stroke-width="0.1"/>
</svg>
